<?xml version="1.0" encoding="UTF-8"?><svg id="Layer_1" xmlns="http://www.w3.org/2000/svg" viewBox="0 0 280.44 231.11"><defs><style>.cls-1{fill:#3ae668;}</style></defs><path class="cls-1" d="M261.68,177.93c-1.6,6.76-3.66,13.42-5.83,20.02-.64,1.94-1.3,3.87-1.96,5.8-11.33-43.33-25.51-86.72-52.01-123.26-12.75-17.57-27.91-33.26-45.83-45.59-19.32-13.29-41.72-21.78-64.7-26.11C64.88,3.8,37.81,3.76,11.09,6.51c-7.61.78-7.69,12.79,0,12,44.89-4.62,92.86-1.71,132.25,22.43,37.16,22.77,62.14,61.03,78.19,100.73,8.71,21.54,15.23,43.87,21.07,66.35-.56-.43-1.12-.86-1.69-1.29-7.12-5.45-14.1-11.07-20.66-17.18-5.64-5.26-14.15,3.21-8.49,8.49,7.67,7.16,15.94,13.61,24.28,19.96,5.4,4.12,13.2,13.07,20.43,7.94,2.89-2.05,3.95-5.59,5.21-8.75,1.49-3.73,2.84-7.52,4.14-11.32,2.8-8.14,5.45-16.37,7.43-24.75,1.78-7.51-9.79-10.71-11.57-3.19Z"/></svg>