<?xml version="1.0" encoding="UTF-8"?><svg id="Layer_1" xmlns="http://www.w3.org/2000/svg" xmlns:xlink="http://www.w3.org/1999/xlink" viewBox="0 0 2000 1400"><defs><style>.cls-1{fill:#ff7f7a;}.cls-2{fill:#3ae668;}.cls-3{fill:#ff9284;}.cls-4{clip-path:url(#clippath-1);}.cls-5{clip-path:url(#clippath-2);}.cls-6{fill:#5b58d1;}.cls-7{fill:#e6e6fb;}.cls-8{fill:#c75467;}.cls-9{fill:#24af69;}.cls-10{clip-path:url(#clippath);}.cls-11{fill:#7774f1;}</style><clipPath id="clippath"><path class="cls-11" d="M772.43,419.88s-102.01,48.39-106.88,64.82c-4.87,16.43,49.98,177.05,67.44,182.91,17.46,5.86,165.27-58.85,171.28-65.48,6.01-6.63-7.95-109-19.08-116.02-11.13-7.02-97.16-62.18-112.77-66.23Z"/></clipPath><clipPath id="clippath-1"><path class="cls-1" d="M541.34,49.04c-15.63,2.02-33.7,43.81-34.52,58.01-.82,14.2,18.36,126.97,32.75,138.68,14.39,11.71,82.95,32.5,97.82,28.91,14.87-3.59,136.53-99.24,126.19-126.16-9.76-25.4-49.74-51.52-77-62.91-19.15-8.01-113.44-40.66-145.23-36.54Z"/></clipPath><clipPath id="clippath-2"><path class="cls-2" d="M356.72,406.04c45.5,39.01,31.87,62.77,17.38,86.99-14.49,24.22-72,104.73-114.89,88.01-33.99-13.24-65.09-66.35-64.43-99.69.43-21.58,59.56-105.45,99.65-101.16,26.84,2.87,37.67,4.74,62.29,25.85Z"/></clipPath></defs><path class="cls-11" d="M772.43,419.88s-102.01,48.39-106.88,64.82c-4.87,16.43,49.98,177.05,67.44,182.91,17.46,5.86,165.27-58.85,171.28-65.48,6.01-6.63-7.95-109-19.08-116.02-11.13-7.02-97.16-62.18-112.77-66.23Z"/><g class="cls-10"><path class="cls-6" d="M885.19,486.11c-2.73,26.12-39.39,71.51-56.37,85.2-16.98,13.69-95.83,96.31-95.83,96.31l104.23,23.29,132.57-83.88-84.6-120.92"/></g><path class="cls-1" d="M541.34,49.04c-15.63,2.02-33.7,43.81-34.52,58.01-.82,14.2,18.36,126.97,32.75,138.68,14.39,11.71,82.95,32.5,97.82,28.91,14.87-3.59,136.53-99.24,126.19-126.16-9.76-25.4-49.74-51.52-77-62.91-19.15-8.01-113.44-40.66-145.23-36.54Z"/><g class="cls-4"><path class="cls-8" d="M564.35,211.4c35.12-9.52,92.28-12.14,136.54-20.74,44.26-8.59,126.31-69.35,148.43-92.02,22.11-22.66,34.43,9.55,34.43,9.55l4.85,137.63-82.29,37.91-271.65-7.11,29.7-65.23"/><polygon class="cls-3" points="475.65 -5.52 413.74 49.22 521.02 301.32 563.88 211.79 475.65 -5.52"/></g><path class="cls-2" d="M356.72,406.04c45.5,39.01,31.87,62.77,17.38,86.99-14.49,24.22-72,104.73-114.89,88.01-33.99-13.24-65.09-66.35-64.43-99.69.43-21.58,59.56-105.45,99.65-101.16,26.84,2.87,37.67,4.74,62.29,25.85Z"/><g class="cls-5"><path class="cls-9" d="M194.77,540.87s52.52,17.25,115.64-7.65c63.12-24.91,92.02-72.9,92.02-72.9l-14.5,78-13.62,104.81-158.47-5.11-21.07-97.14Z"/></g><path class="cls-7" d="M869.21,1031.87c-41.4-5.31-84.77-3.45-125.16,7.53-19.1,5.19-36.02,14.16-52.33,25.21-15.97,10.82-31.79,21.58-48.87,30.61-33.64,17.79-70.08,30.13-107.56,36.67-36.84,6.43-79.27,9.99-114.45-5.28-30.04-13.04-53.55-42.19-47.93-76.31,5.98-36.31,35.13-61.46,66.77-76.57,16.87-8.05,34.78-13.77,52.65-19.12,19.85-5.94,39.9-11.17,60.13-15.66,40.2-8.94,82.45-11.8,121.15-26.48,35.33-13.4,66.76-34.65,97.29-56.55,14.84-10.64,29.82-21.13,44.54-31.94,13.06-9.6,25.76-19.69,38.97-29.08,12.89-9.17,26.32-17.63,40.77-24.14,15.35-6.92,31.7-10.99,48.37-13.05,15.62-1.93,31.23-4.01,46.84-6.01,18.83-2.42,37.63-5.81,56.67-4.13,32.27,2.86,63.14,14.5,93.81,24.2,14.22,4.5,28.44,7.61,43.08,10.44,20.81,4.03,41.63,7.96,62.47,11.8,40.18,7.4,80.42,14.42,120.75,20.98,78.56,12.77,157.41,23.74,236.52,32.51,80.49,8.92,161.23,15.52,242.09,20.02,20.65,1.15,41.31,2.16,61.98,3.05,7.72.33,7.71-11.67,0-12-84-3.62-167.92-9.35-251.6-17.58-80.13-7.88-160.02-18.07-239.6-30.27-82.77-12.69-165.63-26.59-247.63-43.64-29.44-6.12-57.36-18.44-86.61-25.49-16.24-3.91-33.02-6.81-49.77-6.62-8.48.1-15.48,1.3-23.58,2.34-19.3,2.48-38.6,4.95-57.89,7.43-8.84,1.13-17.72,2.08-26.46,3.92-16.49,3.47-32.34,9.56-47.18,17.52-28.78,15.44-53.54,37.37-80.14,56.11-31.58,22.26-62.19,46.26-96.36,64.55-17.32,9.27-35.44,16.74-54.47,21.68-20.24,5.25-41,8.07-61.56,11.74-41.13,7.34-82.18,17.3-121.64,31.09-34.12,11.93-68.2,29.32-88.11,60.78-18.68,29.52-20.74,66.71,1.16,95.1s59.89,40.51,95.8,41.63c38.78,1.21,78.45-5.65,115.32-17.43,37.28-11.92,71.63-29.83,103.8-51.97,16.52-11.37,33.01-21.77,52.42-27.47,20.46-6.01,41.94-9.08,63.2-10.34,20.82-1.23,41.69-.43,62.37,2.22,7.64.98,7.57-11.03,0-12h0Z"/><path class="cls-7" d="M85.1,922.8c3,12.6,10.57,23.55,18.59,33.48,9.21,11.41,19.75,21.67,30.36,31.77,20.86,19.86,41.01,40.43,62.48,59.65,51.67,46.27,108.24,86.63,168.87,120.3,32.8,18.22,65.78,36.23,100.04,51.58,29.6,13.26,60.1,24.22,90.29,36,28.51,11.13,56.25,23.89,82.11,40.37,8.11,5.17,15.46,11.45,24.37,15.13,7.81,3.23,15.71,6.25,23.68,9.07,10.61,3.75,21.37,7.19,32.36,9.65,9.15,2.05,18.77,3.73,28.11,2.04,17.36-3.15,33.93-11.23,49.36-19.47,16.78-8.96,33.27-18.51,49.87-27.81,64.27-36.01,127.93-73.96,194.86-104.89,63.78-29.47,132.17-51.6,203.03-52.03,76.95-.46,151.63,22.15,225.13,42.36,75.51,20.77,151.02,41.54,226.54,62.32,75.75,20.84,151.5,41.68,227.26,62.51,18.62,5.12,37.23,10.24,55.85,15.36,7.46,2.05,10.64-9.52,3.19-11.57-75.43-20.75-150.86-41.5-226.29-62.25-75.4-20.74-150.79-41.48-226.19-62.22-36.93-10.16-73.82-20.52-110.83-30.39-36.73-9.8-73.78-18.69-111.49-23.77s-72.95-5.9-109.35-1.21c-34.55,4.46-68.32,13.26-101.09,25-66.2,23.72-127.8,58.2-188.96,92.48-34.14,19.13-68.28,38.27-102.43,57.39-15.37,8.61-30.87,17.37-47.67,22.88-11.24,3.69-19.83,4.83-31.46,2.58-19.94-3.86-39.35-11.09-58.12-18.73-1.17-.48-2.34-.96-3.5-1.44-1.67-.69.53.53-.91-.38-5.32-3.36-10.38-7.22-15.66-10.66-13.24-8.64-27.01-16.45-41.2-23.43-26.73-13.15-54.78-23.28-82.57-33.91-33.07-12.65-65.38-26.73-96.85-42.98-63.82-32.96-125.55-69.4-181.72-114.37-24.45-19.57-47.91-40.37-70.34-62.22-9.74-9.49-19.29-19.13-29.16-28.48-10.61-10.06-21.22-20.19-30.68-31.35-7.82-9.22-15.45-19.61-18.3-31.56-1.79-7.51-13.36-4.33-11.57,3.19h0Z"/><path class="cls-7" d="M742.26,1243.68c-74.39,9.75-146.48-19.61-214.38-46.13-17.36-6.78-34.63-13.83-51.3-22.21-16.73-8.41-32.53-18.42-48.17-28.68-32.68-21.45-65.31-42.98-97.96-64.47-32.73-21.54-65.45-43.08-98.18-64.62-28.72-18.9-57.71-37.47-85.45-57.8-26.66-19.54-52.14-41.01-73.88-66-5.54-6.36-10.83-12.94-15.77-19.78-4.67-6.47-9.86-13.73-10.82-21.88-1.87-15.87,14.27-27.96,27.5-32.64,32.96-11.66,66.38,4.58,94.48,21.02,15.56,9.1,30.7,18.92,45.36,29.42,7.28,5.22,14.45,10.6,21.47,16.17,3.35,2.66,6.67,5.35,9.97,8.08,2.2,1.82,8.2,5.36,7.79,8.29-.25,1.83-2.37,3.92-3.36,5.42-1.21,1.84-2.43,3.68-3.64,5.52-2.6,3.94-5.2,7.89-7.8,11.83l11.18,3.03c.11-5.56,4.49-9.55,9.42-11.48,6.05-2.37,12.6-1.03,18.49,1.15,7.25,2.68,13.94,6.99,20.63,10.79,7.2,4.1,14.4,8.19,21.6,12.29,28.8,16.39,57.59,32.78,86.39,49.17,6.72,3.83,12.78-6.54,6.06-10.36-33.4-19.01-66.81-38.02-100.21-57.04-14.25-8.11-30.65-20.42-47.95-19.22-13.35.93-26.14,10.57-26.42,24.69-.12,6.22,8.04,7.8,11.18,3.03,2.6-3.94,5.2-7.89,7.8-11.83,2.73-4.14,6.3-8.35,8.03-13.03,3.23-8.73-3.19-14.47-9.3-19.57-14.7-12.27-29.98-23.86-45.79-34.67-15.73-10.76-31.97-20.94-48.8-29.9-16.09-8.57-33.17-15.7-51.38-18-16.18-2.04-33.14.08-47.73,7.62-14.03,7.25-27.09,21.01-27.08,37.7,0,17.51,13.8,32.84,24.27,45.61,11.14,13.6,23.46,26.21,36.49,38,26.05,23.59,54.83,43.98,83.99,63.52,33.33,22.33,66.98,44.18,100.48,66.24,34.94,23,69.89,46,104.83,69,33.82,22.26,66.98,45.63,104.1,62.17,35.71,15.91,72.78,29.95,109.91,42.19,37.12,12.23,75.86,21.54,115.16,21.33,9.64-.05,19.24-.73,28.79-1.98,3.24-.42,5.96-2.45,6-6,.03-2.92-2.79-6.42-6-6h0Z"/><path class="cls-7" d="M36.67,833.42c-9.63-8.63-6.55-24.34,2-32.68,10.96-10.68,28.02-12.03,42.5-11.65,32.99.87,64.89,11.34,94.16,26.1s58.19,34.77,85.45,54.82c6.37,4.68,13.44,9.09,18.99,14.76,4.68,4.78,4.58,12.28,9.55,16.7,6.31,5.61,12.25-.87,19.01,1.04,7.6,2.15,14.94,6.78,21.97,10.32,35.03,17.63,69.57,36.69,101.94,58.88,6.39,4.38,12.39-6.02,6.06-10.36-30.95-21.22-63.9-39.55-97.33-56.55-7.72-3.93-15.43-7.98-23.34-11.51-3.71-1.65-7.57-3.14-11.67-3.34-2.07-.1-4.24.1-6.23.69-.72.21-2.43.8-2.91,1.2-1.82,1.52.6-1.19.56.77,0-.39-1.09-2.31-1.28-2.8-.69-1.79-1.19-3.64-2.01-5.38-1.88-4-4.85-7.43-8.16-10.32-6.41-5.61-13.62-10.44-20.48-15.47-55.68-40.87-121.36-84.92-193.69-81.47-17.4.83-36.49,5.99-46.65,21.33-8.65,13.06-9.21,32.42,3.07,43.41,5.74,5.14,14.25-3.32,8.49-8.49h0Z"/><path class="cls-7" d="M274.63,863.07c11.23-9.16,27.28-5.72,39.84-1.63,16.25,5.3,31.9,12.86,47.63,19.5,32.39,13.67,64.78,27.34,97.17,41.01,19.04,8.04,38.08,16.08,57.11,24.13,3.01,1.27,6.39.88,8.21-2.15,1.5-2.5.83-6.95-2.15-8.21-34.94-14.76-69.89-29.52-104.83-44.27-17.44-7.36-34.88-14.72-52.32-22.08-16.43-6.93-32.79-15.01-49.87-20.21-16.77-5.11-34.99-6.23-49.27,5.42-5.99,4.88,2.55,13.33,8.49,8.49h0Z"/><path class="cls-7" d="M403.55,1000.3c8.15-2.26,16.25-4.16,24.72-4.54,9.48-.43,18.97-1.26,28.02,2.03,9.14,3.32,14.92,7.95,18.7,17.11,2.63,6.38,4.08,13.15,5.28,19.92,1.39,7.82,2.4,15.7,3.05,23.61.54,6.58,1.26,13.81.28,20.3-1.97,12.98-18.11,16.98-28.87,19.26-21.6,4.58-44.05,4.78-66,6.42-7.65.57-7.72,12.58,0,12,22.39-1.68,45.12-2.11,67.21-6.45,14.96-2.94,33.47-8.9,38.53-25.13,2.04-6.54,1.6-14.02,1.23-20.76-.52-9.49-1.68-18.96-3.18-28.34-2.71-16.92-7.21-37.77-24.22-45.83-5.33-2.53-11-4.88-16.83-5.95s-12.21-.47-18.22-.34c-11.31.24-22,2.11-32.9,5.12-7.43,2.06-4.28,13.64,3.19,11.57h0Z"/><path class="cls-7" d="M643.29,1056.08c14.26-28.13,4.61-64.38-21.83-81.62-6.49-4.23-12.51,6.15-6.06,10.36,20.75,13.53,28.74,43.09,17.52,65.2-3.48,6.87,6.86,12.95,10.36,6.06h0Z"/><path class="cls-7" d="M599.87,1045.01c-.6-13.06-3.68-25.46-9.09-37.35-3.19-7.02-13.54-.93-10.36,6.06,4.49,9.87,6.95,20.48,7.45,31.3.35,7.69,12.36,7.73,12,0h0Z"/><path class="cls-7" d="M864.88,1042.46c20.82,3.09,41.22-2.48,57.48-15.87,5.97-4.91-2.57-13.36-8.49-8.49-12.6,10.37-29.64,15.19-45.81,12.78-7.55-1.12-10.81,10.44-3.19,11.57h0Z"/></svg>